<svg width="781" height="160" viewBox="0 0 781 160" fill="none" xmlns="http://www.w3.org/2000/svg">
<path d="M340.746 10.4873C340.413 3.78063 348.093 -1.0327 354.066 1.75397C358.813 3.43397 361.506 9.8873 358 13.9806C354.92 18.394 348.826 18.274 344.426 16.1006C319.533 28.4473 294.586 40.714 269.853 53.3673C268.653 51.4873 267.453 49.6206 266.253 47.7673C291.026 35.234 315.973 23.0206 340.746 10.4873ZM346.666 6.62063C342.4 10.794 350.213 16.4873 353.68 12.314C358.6 8.35397 350.146 2.15397 346.666 6.62063Z" fill="#034AAC"/>
<path d="M251.4 24.7811C254.96 18.1678 266.08 18.8611 268.6 25.9944C270.493 30.5278 266.88 34.4878 263.2 36.5411C263.133 58.8478 263.213 81.1678 263.16 103.474C275.253 109.661 287.266 116.048 299.44 122.088C298.146 123.928 296.866 125.808 295.573 127.661C282.506 120.688 269.24 114.114 256.146 107.194C256.186 83.6344 256.12 60.0744 256.173 36.5011C252.013 34.4878 248.413 29.2211 251.4 24.7811ZM257.04 25.0478C254.626 26.3011 254.106 29.7811 256.36 31.4744C259 34.4611 264.186 32.2878 264.733 28.6078C264.32 25.1411 259.946 23.0078 257.04 25.0478Z" fill="#034AAC"/>
<path d="M316.64 37.2476C317.893 35.4343 319.146 33.621 320.426 31.8076C333.986 39.101 347.773 45.9543 361.413 53.101C361.32 76.301 361.306 99.501 361.413 122.701C365.093 124.688 368.56 128.981 366.52 133.328C363.826 140.648 351.986 140.754 349.08 133.554C346.866 129.061 350.413 124.621 354.266 122.608C354.386 100.688 354.28 78.7543 354.333 56.8343C341.786 50.2609 329.146 43.8876 316.64 37.2476ZM355.96 126.621C354.08 127.568 352.013 129.781 353.2 132.008C354.92 136.048 361.56 135.661 362.626 131.314C363.04 127.834 359.026 125.421 355.96 126.621Z" fill="#034AAC"/>
<path d="M277.52 65.5676C288.2 60.1143 298.786 54.4743 309.533 49.1543C319.893 54.8743 330.56 60.0476 341.04 65.5676C340.973 76.4343 340.986 87.3143 341.026 98.181C330.413 103.634 319.826 109.128 309.2 114.541C298.693 108.994 288.093 103.634 277.546 98.1943C277.586 87.3143 277.626 76.4476 277.52 65.5676ZM305.226 58.5276C298.586 62.1943 291.64 65.301 285.08 69.1143C283.76 77.301 285 85.9543 284.48 94.3276C292.72 98.8076 301.106 103.008 309.48 107.248C317.32 102.754 325.64 99.141 333.466 94.6343C334.453 86.2743 333.586 77.5543 333.826 69.0476C326.04 65.2876 318.453 61.1143 310.72 57.2476C308.826 56.061 306.933 57.861 305.226 58.5276Z" fill="#034AAC"/>
<path d="M275.867 144.687C299.28 132.181 322.893 120.021 346.293 107.487C347.573 109.274 348.867 111.074 350.187 112.861C326.667 125.421 302.96 137.594 279.493 150.207C279.12 153.861 277.52 157.807 273.667 158.954C267.547 162.207 258.413 155.847 261.053 148.927C263.293 142.994 270.773 141.767 275.867 144.687ZM268.8 147.301C266.333 147.727 263.973 150.661 265.56 153.021C267.173 156.647 272.84 156.487 274.427 152.927C276.213 149.701 271.827 146.194 268.8 147.301Z" fill="#034AAC"/>
<path d="M0.760064 27.127C8.40006 27.127 16.0401 27.1403 23.6801 27.127C23.6801 62.2203 23.6934 97.3136 23.6801 132.407C16.0401 132.247 8.38673 132.327 0.733398 132.367C0.800065 97.287 0.773398 62.207 0.760064 27.127Z" fill="#21201C"/>
<path d="M38.2269 27.3407C45.9069 27.3807 53.5869 27.5007 61.2669 27.2607C61.2402 50.3541 61.4535 73.4607 61.1469 96.5674C76.0002 73.6874 90.1469 50.3407 104.72 27.2874C112.347 27.4607 119.987 27.4074 127.614 27.3141C127.614 62.3941 127.614 97.4607 127.614 132.541C120.014 132.407 112.427 132.461 104.827 132.514C104.894 109.341 104.76 86.1807 104.907 63.0074C89.9735 86.0741 75.4802 109.421 60.7069 132.594C53.2135 132.354 45.7069 132.501 38.2002 132.501C38.2935 97.4474 38.2402 62.3941 38.2269 27.3407Z" fill="#21201C"/>
<path d="M143.04 27.607C150.586 27.687 158.133 27.727 165.666 27.5804C180.52 50.5404 194.466 74.087 209.466 96.9404C209.28 73.807 209.386 50.687 209.4 27.5537C217.04 27.767 224.693 27.6337 232.346 27.647C232.24 62.7537 232.213 97.8737 232.36 132.994C224.906 133.02 217.453 132.954 209.986 133.047C195.08 110.007 180.813 86.5404 165.746 63.607C165.986 86.727 165.653 109.86 165.933 132.98C158.293 133.02 150.666 132.98 143.026 133.02C143.066 97.887 143.053 62.7404 143.04 27.607Z" fill="#21201C"/>
<path d="M380.107 46.0876C380.054 39.7543 380.067 33.4343 380.094 27.1143C410.734 27.1543 441.374 27.1409 472 27.1276C472 33.4343 472 39.7543 472 46.0743C460.454 46.0609 448.907 46.0209 437.374 46.0876C437.44 74.8743 437.427 103.661 437.387 132.448C429.814 132.261 422.254 132.261 414.694 132.448C414.614 103.634 414.72 74.8343 414.654 46.0209C403.134 46.1009 391.627 46.0076 380.107 46.0876Z" fill="#21201C"/>
<path d="M487.12 27.1272C503.64 27.1672 520.16 27.0738 536.68 27.1672C547.2 27.1805 558.147 30.1672 565.96 37.5138C578.813 48.7005 579.2 71.1139 566.707 82.7139C562.387 87.0605 556.667 89.5539 550.973 91.4872C559.253 105.167 567.64 118.781 576 132.394C567.787 132.314 559.573 132.234 551.36 132.434C543.293 119.461 535.547 106.287 527.44 93.3272C521.573 93.3672 515.707 93.3405 509.84 93.3538C509.893 106.354 509.827 119.367 509.893 132.367C502.293 132.314 494.707 132.301 487.12 132.367C487.133 97.2872 487.12 62.2072 487.12 27.1272ZM509.853 45.5538C509.867 55.5805 509.867 65.5939 509.853 75.6205C518.8 75.5539 527.747 75.7805 536.693 75.5272C542.933 75.3005 550.067 72.3538 551.987 65.8738C553.12 60.7672 553.067 54.6339 549.2 50.6205C545.32 46.5405 539.373 45.6338 534.013 45.5538C525.947 45.5138 517.907 45.5672 509.853 45.5538Z" fill="#21201C"/>
<path d="M624.56 27.1405C631.013 27.5938 637.986 26.1938 644.133 27.8072C658.493 62.5805 672.226 97.6205 686.6 132.407C678.746 132.314 670.893 132.207 663.053 132.461C660.706 126.714 658.56 120.874 656.186 115.14C641.24 115.047 626.28 115.141 611.333 115.087C608.946 120.807 606.733 126.581 604.493 132.354C596.933 132.301 589.36 132.314 581.8 132.367C596.12 97.3138 610.226 62.1805 624.56 27.1405ZM617.52 98.3005C628.32 98.2205 639.12 98.2472 649.92 98.2872C644.453 84.5405 639.146 70.7272 633.933 56.8872C628.173 70.5672 623.226 84.5938 617.52 98.3005Z" fill="#21201C"/>
<path d="M689.014 27.194C719.667 27.0473 750.334 27.194 780.987 27.1273C780.987 33.434 780.987 39.754 780.987 46.0606C769.44 46.0606 757.88 46.0206 746.334 46.0873C746.454 74.8606 746.374 103.647 746.387 132.421C738.774 132.247 731.174 132.327 723.574 132.367C723.667 103.594 723.574 74.8206 723.627 46.0606C712.08 45.9806 700.547 46.2073 689.014 45.9273C689.067 39.6873 689.067 33.4473 689.014 27.194Z" fill="#21201C"/>
</svg>
