<svg width="781" height="159" viewBox="0 0 781 159" fill="none" xmlns="http://www.w3.org/2000/svg">
<path d="M340.013 9.53906C339.68 2.83239 347.36 -1.98094 353.333 0.805726C358.08 2.48573 360.773 8.93906 357.266 13.0324C354.186 17.4457 348.093 17.3257 343.693 15.1524C318.8 27.4991 293.853 39.7657 269.12 52.4191C267.92 50.5391 266.72 48.6724 265.52 46.8191C290.293 34.2857 315.24 22.0724 340.013 9.53906ZM345.933 5.67239C341.666 9.84572 349.48 15.5391 352.946 11.3657C357.866 7.40572 349.413 1.20572 345.933 5.67239Z" fill="#034AAC"/>
<path d="M250.666 23.8329C254.226 17.2195 265.346 17.9129 267.866 25.0462C269.76 29.5795 266.146 33.5395 262.466 35.5929C262.4 57.8995 262.48 80.2195 262.426 102.526C274.52 108.713 286.533 115.1 298.706 121.14C297.413 122.98 296.133 124.86 294.84 126.713C281.773 119.74 268.506 113.166 255.413 106.246C255.453 82.6862 255.386 59.1262 255.44 35.5529C251.28 33.5395 247.68 28.2729 250.666 23.8329ZM256.306 24.0995C253.893 25.3529 253.373 28.8329 255.626 30.5262C258.266 33.5129 263.453 31.3395 264 27.6595C263.586 24.1929 259.213 22.0595 256.306 24.0995Z" fill="#034AAC"/>
<path d="M315.906 36.2994C317.16 34.486 318.413 32.6727 319.693 30.8594C333.253 38.1527 347.04 45.006 360.68 52.1527C360.586 75.3527 360.573 98.5527 360.68 121.753C364.36 123.739 367.826 128.033 365.786 132.379C363.093 139.699 351.253 139.806 348.346 132.606C346.133 128.113 349.68 123.673 353.533 121.659C353.653 99.7394 353.546 77.806 353.6 55.886C341.053 49.3127 328.413 42.9394 315.906 36.2994ZM355.226 125.673C353.346 126.619 351.28 128.833 352.466 131.059C354.186 135.099 360.826 134.713 361.893 130.366C362.306 126.886 358.293 124.473 355.226 125.673Z" fill="#034AAC"/>
<path d="M276.786 64.6194C287.466 59.1661 298.053 53.5261 308.799 48.2061C319.159 53.9261 329.826 59.0994 340.306 64.6194C340.239 75.4861 340.253 86.3661 340.293 97.2327C329.679 102.686 319.093 108.179 308.466 113.593C297.959 108.046 287.359 102.686 276.813 97.2461C276.853 86.3661 276.893 75.4994 276.786 64.6194ZM304.493 57.5794C297.853 61.2461 290.906 64.3527 284.346 68.166C283.026 76.3527 284.266 85.0061 283.746 93.3794C291.986 97.8594 300.373 102.059 308.746 106.299C316.586 101.806 324.906 98.1927 332.733 93.686C333.719 85.326 332.853 76.6061 333.093 68.0994C325.306 64.3394 317.719 60.1661 309.986 56.2994C308.093 55.1127 306.199 56.9127 304.493 57.5794Z" fill="#034AAC"/>
<path d="M275.133 143.739C298.547 131.232 322.16 119.072 345.56 106.539C346.84 108.326 348.133 110.126 349.453 111.912C325.933 124.472 302.227 136.646 278.76 149.259C278.387 152.912 276.787 156.859 272.933 158.006C266.813 161.259 257.68 154.899 260.32 147.979C262.56 142.046 270.04 140.819 275.133 143.739ZM268.067 146.352C265.6 146.779 263.24 149.712 264.827 152.072C266.44 155.699 272.107 155.539 273.693 151.979C275.48 148.752 271.093 145.246 268.067 146.352Z" fill="#034AAC"/>
<path d="M0.026666 26.1787C7.66667 26.1787 15.3067 26.192 22.9467 26.1787C22.9467 61.272 22.96 96.3654 22.9467 131.459C15.3067 131.299 7.65333 131.379 0 131.419C0.0666667 96.3387 0.0399993 61.2587 0.026666 26.1787Z" fill="white"/>
<path d="M37.4935 26.3925C45.1735 26.4325 52.8535 26.5525 60.5335 26.3125C60.5068 49.4058 60.7201 72.5125 60.4135 95.6192C75.2668 72.7392 89.4135 49.3925 103.987 26.3392C111.613 26.5125 119.253 26.4592 126.88 26.3658C126.88 61.4458 126.88 96.5125 126.88 131.592C119.28 131.459 111.693 131.512 104.093 131.566C104.16 108.392 104.027 85.2325 104.173 62.0592C89.2401 85.1258 74.7468 108.473 59.9735 131.646C52.4801 131.406 44.9735 131.552 37.4668 131.552C37.5601 96.4992 37.5068 61.4458 37.4935 26.3925Z" fill="white"/>
<path d="M142.306 26.6588C149.853 26.7388 157.4 26.7788 164.933 26.6321C179.786 49.5921 193.733 73.1388 208.733 95.9921C208.546 72.8588 208.653 49.7388 208.666 26.6055C216.306 26.8188 223.96 26.6855 231.613 26.6988C231.506 61.8055 231.48 96.9255 231.626 132.045C224.173 132.072 216.72 132.005 209.253 132.099C194.346 109.059 180.08 85.5921 165.013 62.6588C165.253 85.7788 164.92 108.912 165.2 132.032C157.56 132.072 149.933 132.032 142.293 132.072C142.333 96.9388 142.32 61.7921 142.306 26.6588Z" fill="white"/>
<path d="M379.374 45.1393C379.32 38.806 379.334 32.486 379.36 26.166C410 26.206 440.64 26.1927 471.267 26.1793C471.267 32.486 471.267 38.806 471.267 45.126C459.72 45.1127 448.174 45.0727 436.64 45.1393C436.707 73.926 436.694 102.713 436.654 131.499C429.08 131.313 421.52 131.313 413.96 131.499C413.88 102.686 413.987 73.886 413.92 45.0727C402.4 45.1527 390.894 45.0593 379.374 45.1393Z" fill="white"/>
<path d="M486.387 26.1789C502.907 26.2189 519.427 26.1256 535.947 26.2189C546.467 26.2323 557.413 29.2189 565.227 36.5656C578.08 47.7523 578.467 70.1656 565.973 81.7656C561.653 86.1123 555.933 88.6056 550.24 90.5389C558.52 104.219 566.907 117.832 575.267 131.446C567.053 131.366 558.84 131.286 550.627 131.486C542.56 118.512 534.813 105.339 526.707 92.3789C520.84 92.4189 514.973 92.3923 509.107 92.4056C509.16 105.406 509.093 118.419 509.16 131.419C501.56 131.366 493.973 131.352 486.387 131.419C486.4 96.3389 486.387 61.2589 486.387 26.1789ZM509.12 44.6056C509.133 54.6323 509.133 64.6456 509.12 74.6723C518.067 74.6056 527.013 74.8323 535.96 74.5789C542.2 74.3523 549.333 71.4056 551.253 64.9256C552.387 59.8189 552.333 53.6856 548.467 49.6723C544.587 45.5923 538.64 44.6856 533.28 44.6056C525.213 44.5656 517.173 44.6189 509.12 44.6056Z" fill="white"/>
<path d="M623.826 26.1923C630.28 26.6456 637.253 25.2456 643.4 26.8589C657.76 61.6323 671.493 96.6723 685.866 131.459C678.013 131.366 670.16 131.259 662.32 131.512C659.973 125.766 657.826 119.926 655.453 114.192C640.506 114.099 625.546 114.192 610.6 114.139C608.213 119.859 606 125.632 603.76 131.406C596.2 131.352 588.626 131.366 581.066 131.419C595.386 96.3656 609.493 61.2323 623.826 26.1923ZM616.786 97.3523C627.586 97.2723 638.386 97.2989 649.186 97.3389C643.72 83.5923 638.413 69.7789 633.2 55.9389C627.44 69.6189 622.493 83.6456 616.786 97.3523Z" fill="white"/>
<path d="M688.28 26.2457C718.934 26.0991 749.6 26.2457 780.254 26.1791C780.254 32.4857 780.254 38.8057 780.254 45.1124C768.707 45.1124 757.147 45.0724 745.6 45.1391C745.72 73.9124 745.64 102.699 745.654 131.472C738.04 131.299 730.44 131.379 722.84 131.419C722.934 102.646 722.84 73.8724 722.894 45.1124C711.347 45.0324 699.814 45.2591 688.28 44.9791C688.334 38.7391 688.334 32.4991 688.28 26.2457Z" fill="white"/>
</svg>
